<?xml version="1.0" encoding="UTF-8" standalone="no"?>
<!-- Created with Inkscape (http://www.inkscape.org/) -->

<svg
   width="512"
   height="512"
   viewBox="0 0 135.46667 135.46667"
   version="1.1"
   id="svg1"
   xml:space="preserve"
   inkscape:version="1.3.2 (091e20e, 2023-11-25, custom)"
   sodipodi:docname="icon.svg"
   xmlns:inkscape="http://www.inkscape.org/namespaces/inkscape"
   xmlns:sodipodi="http://sodipodi.sourceforge.net/DTD/sodipodi-0.dtd"
   xmlns:xlink="http://www.w3.org/1999/xlink"
   xmlns="http://www.w3.org/2000/svg"
   xmlns:svg="http://www.w3.org/2000/svg"><sodipodi:namedview
     id="namedview1"
     pagecolor="#505050"
     bordercolor="#eeeeee"
     borderopacity="1"
     inkscape:showpageshadow="0"
     inkscape:pageopacity="0"
     inkscape:pagecheckerboard="0"
     inkscape:deskcolor="#505050"
     inkscape:document-units="px"
     inkscape:zoom="0.72426347"
     inkscape:cx="53.847808"
     inkscape:cy="275.45225"
     inkscape:window-width="1920"
     inkscape:window-height="1009"
     inkscape:window-x="-8"
     inkscape:window-y="-8"
     inkscape:window-maximized="1"
     inkscape:current-layer="svg1" /><defs
     id="defs1"><linearGradient
       id="linearGradient53"
       inkscape:collect="always"><stop
         style="stop-color:#fff2a0;stop-opacity:1;"
         offset="0"
         id="stop53" /><stop
         style="stop-color:#c39000;stop-opacity:1;"
         offset="0.40041843"
         id="stop56" /><stop
         style="stop-color:#d0a900;stop-opacity:1;"
         offset="0.49790794"
         id="stop55" /><stop
         style="stop-color:#c39000;stop-opacity:1;"
         offset="0.60460252"
         id="stop57" /><stop
         style="stop-color:#fff2a0;stop-opacity:1;"
         offset="1"
         id="stop54" /></linearGradient><linearGradient
       id="linearGradient45"
       inkscape:collect="always"><stop
         style="stop-color:#cc9900;stop-opacity:1;"
         offset="0"
         id="stop46" /><stop
         style="stop-color:#f8ee00;stop-opacity:1;"
         offset="0.50418413"
         id="stop49" /><stop
         style="stop-color:#cc9900;stop-opacity:1;"
         offset="1"
         id="stop48" /></linearGradient><linearGradient
       id="swatch45"
       inkscape:swatch="solid"><stop
         style="stop-color:#0f00ff;stop-opacity:1;"
         offset="0"
         id="stop45" /></linearGradient><linearGradient
       id="swatch39"
       inkscape:swatch="solid"><stop
         style="stop-color:#00ff17;stop-opacity:1;"
         offset="0"
         id="stop39" /></linearGradient><linearGradient
       id="swatch32"
       inkscape:swatch="solid"><stop
         style="stop-color:#000000;stop-opacity:1;"
         offset="0"
         id="stop32" /></linearGradient><linearGradient
       id="swatch31"
       inkscape:swatch="solid"><stop
         style="stop-color:#000000;stop-opacity:1;"
         offset="0"
         id="stop31" /></linearGradient><linearGradient
       id="swatch11"
       inkscape:swatch="solid"><stop
         style="stop-color:#ff0000;stop-opacity:1;"
         offset="0"
         id="stop11" /></linearGradient><linearGradient
       id="swatch10"
       inkscape:swatch="solid"><stop
         style="stop-color:#000000;stop-opacity:1;"
         offset="0"
         id="stop10" /></linearGradient><linearGradient
       id="swatch9"
       inkscape:swatch="solid"><stop
         style="stop-color:#000000;stop-opacity:1;"
         offset="0"
         id="stop9" /></linearGradient><linearGradient
       id="swatch8"
       inkscape:swatch="solid"><stop
         style="stop-color:#4b4b4b;stop-opacity:1;"
         offset="0"
         id="stop8" /></linearGradient><linearGradient
       inkscape:collect="always"
       xlink:href="#swatch31"
       id="linearGradient31"
       x1="0"
       y1="256.00002"
       x2="512.001"
       y2="256.00002"
       gradientUnits="userSpaceOnUse" /><linearGradient
       inkscape:collect="always"
       xlink:href="#linearGradient45"
       id="linearGradient47"
       x1="22.244009"
       y1="68.808205"
       x2="113.8028"
       y2="68.808205"
       gradientUnits="userSpaceOnUse" /><linearGradient
       inkscape:collect="always"
       xlink:href="#linearGradient53"
       id="linearGradient54"
       x1="-219.74219"
       y1="141.46729"
       x2="831.09961"
       y2="100.72725"
       gradientUnits="userSpaceOnUse" /></defs><path
     id="path28"
     style="display:inline;opacity:1;fill:url(#linearGradient54);fill-opacity:1;stroke:none"
     class="st0"
     d="m 608.73697,-150.66154 c -158.37568,-100.9678 -316.74912,79.158276 -475.1238,18.6734 -12.29698,-4.68699 -23.70476,-12.00198 -23.70476,-12.00198 -2.81299,-1.422 -6.16843,-1.2807 -8.85542,0.3593 -2.687995,1.65699 -4.315852,4.57952 -4.315852,7.73551 l 6.36e-4,257.23373 C 256.37845,223.12021 416.01947,39.276695 575.67616,104.18356 c 11.01597,4.469 19.81231,10.28164 19.81231,10.28164 2.813,1.45299 6.18872,1.33985 8.89171,-0.30115 2.70299,-1.64099 4.35925,-4.57678 4.35925,-7.74877 z m -75.21995,3.10917 c 2.344,23.95296 20.23709,44.93797 43.22204,58.296941 l -0.002,115.671985 C 553.76788,20.807567 535.8467,37.47883 533.51871,60.446785 489.2058,53.446799 444.90904,61.978372 400.61212,74.619348 c 30.03094,-29.045942 50.31294,-71.2023299 50.31294,-115.98424 0,-44.718911 -20.27986,-80.329418 -50.3118,-92.017398 44.29691,-12.64098 88.59185,-21.17006 132.90376,-14.17008 z m -39.29215,92.819612 c -2.52194,-2.989994 -6.34037,-4.800676 -10.61199,-4.492988 -7.59399,0.530999 -13.74956,7.484331 -13.74956,15.047324 0,7.608992 6.15569,12.970885 13.74968,12.454885 7.59399,-0.562999 13.74973,-6.7321 13.74973,-14.326093 0,-3.315371 -1.17636,-6.357576 -3.13786,-8.683128 z m -94.15806,-33.973314 c -5.92199,10.921979 -11.8576,21.93864 -17.7956,32.984618 7.15499,-2.187996 14.27919,-4.299127 21.43518,-6.314123 l -2e-4,4.218198 6e-5,12.814317 -0.001,4.234104 c -11.71898,3.280993 -23.40553,6.874874 -35.12451,10.562866 -1.25,2.358996 -2.51551,4.703759 -3.78051,7.047754 l -7.7e-4,14.0624284 c 12.96897,-4.0939924 25.938,-8.1253144 38.90597,-11.7503084 l 0.002,0.04805 -10e-4,18.2007669 -5.2e-4,2.86089914 C 390.73676,3.8884898 377.76774,7.9198132 364.79976,12.013805 l 0.002,28.968696 c -8.03099,2.546995 -16.09435,5.122916 -24.14133,7.66991 l -1.1e-4,-28.949973 c -12.95297,4.108992 -25.92175,8.120913 -38.89072,11.761906 l 1.9e-4,-2.855597 -10e-4,-18.203583 0.003,-0.04772 C 314.74016,6.7164532 327.70646,2.686715 340.65943,-1.4072768 L 340.65921,-15.4538 c -1.266,-1.546996 -2.51642,-3.125779 -3.78142,-4.688776 -11.70298,3.687992 -23.3888,7.280288 -35.10678,10.5772815 l 0.001,-4.2341045 -0.003,-12.811831 2e-4,-4.218198 c 7.15598,-2.015996 14.281,-4.128614 21.43799,-6.316609 -5.93799,-7.405986 -11.87539,-14.873114 -17.81338,-22.420099 0.906,-0.25 1.81491,-0.517679 2.7209,-0.782679 5.90599,-1.718996 11.84265,-3.497674 17.74865,-5.32567 0.906,-0.266 1.81258,-0.549728 2.71858,-0.830728 8.03098,10.01598 16.09604,19.986156 24.14302,29.940136 8.04699,-15.09397 16.10913,-30.188439 24.17212,-45.203409 0.90599,-0.281 1.81076,-0.563149 2.71675,-0.844149 5.906,-1.812996 11.82848,-3.593253 17.75048,-5.312249 0.90599,-0.266 1.79618,-0.531189 2.70218,-0.781188 z M 512.00259,119.99845 c -11.69371,-7.45499 -23.38964,-13.2122 -35.08336,-17.81234 -28.43146,2.7847 -57.19261,10.11443 -86.35516,18.86548 15.40437,-0.84129 30.8112,-0.37789 46.21857,2.05603 2.344,23.95292 20.23182,44.93766 43.21674,58.29661 l 2.5e-4,115.6748 c -22.96894,-5.60899 -40.89012,11.06231 -43.21812,34.03023 -44.31287,-6.99997 -88.60972,1.53159 -132.90658,14.17256 30.03091,-29.04591 50.31294,-71.20238 50.31294,-115.98424 0,-38.16175 -14.80141,-69.63276 -37.79628,-85.3216 -60.48556,17.85638 -123.16067,29.81144 -185.80739,6.3203 -31.236721,2.78745 -62.473999,0.30485 -93.710716,-11.62477 -12.296961,-4.68699 -23.702274,-11.99916 -23.702274,-11.99916 -2.812991,-1.422 -6.1709126,-1.28349 -8.8579045,0.35649 -2.687992,1.657 -4.313362818311,4.58233 -4.313362818311,7.73833 L 5.7879851e-4,392.00089 C 159.6411,493.78257 319.27996,309.93641 478.93648,374.84322 c 11.01597,4.46898 19.81513,10.27915 19.81513,10.27915 2.81299,1.453 6.18837,1.34515 8.89137,-0.29585 2.70298,-1.641 4.35926,-4.57677 4.35926,-7.74876 z M 304.86163,-103.92656 c -30.03094,29.046942 -50.31095,71.171515 -50.31095,115.952425 0,44.73391 20.28069,80.32775 50.31263,92.046725 -44.31291,12.64098 -88.62548,21.15466 -132.9374,14.15467 -2.34399,-23.968953 -20.21828,-44.967698 -43.18724,-58.34267 l -0.002,-115.653594 c 22.96896,5.57799 40.84563,-11.03112 43.18962,-34.000074 44.31292,6.999986 88.622,-1.517508 132.93492,-14.157482 z M 232.4734,6.4728934 c -2.52193,-2.7814015 -6.34003,-4.3537276 -10.61165,-4.0724779 -7.59399,0.5469994 -13.74724,6.7199173 -13.74724,14.3289095 0,7.608993 6.15336,13.7203 13.74735,13.1733 7.594,-0.515999 13.74957,-7.453331 13.74957,-15.047324 0,-3.322371 -1.17652,-6.2190953 -3.13803,-8.3824076 z M 397.48519,215.9269 c -2.52194,-2.98999 -6.33788,-4.79786 -10.6095,-4.49017 -7.59399,0.531 -13.74957,7.48433 -13.74957,15.04732 0,7.60899 6.15321,12.96807 13.7472,12.45207 7.59399,-0.563 13.75254,-6.73459 13.75254,-14.32858 0,-3.31537 -1.17917,-6.35509 -3.14067,-8.68064 z m -94.15276,-33.97298 c -5.92198,10.92197 -11.8629,21.93831 -17.8009,32.98428 7.15498,-2.18799 14.28167,-4.29631 21.43766,-6.3113 l -2e-4,4.21819 7e-5,12.81432 0.002,4.23162 c -11.71897,3.28098 -23.40554,6.87489 -35.12451,10.56287 -1.25,2.35899 -2.518,4.70094 -3.78299,7.04493 l 0.002,14.06525 c 12.96895,-4.09398 25.93802,-8.12533 38.90597,-11.75031 l -0.003,0.0477 0.001,18.20358 -1.9e-4,2.8556 c -12.96897,3.625 -25.93802,7.65633 -38.90597,11.75031 l -0.001,28.97118 c -8.03099,2.547 -16.09187,5.12573 -24.13885,7.67273 l 2.3e-4,-28.95528 c -12.95297,4.10898 -25.92209,8.12623 -38.89106,11.76721 l -0.002,-2.85842 -0.001,-18.20358 0.003,-0.0477 c 12.96896,-3.64099 25.93809,-7.67321 38.89105,-11.7672 l -2.2e-4,-14.04653 c -1.266,-1.547 -2.51643,-3.12578 -3.78141,-4.68877 -11.70297,3.68799 -23.39163,7.28277 -35.1096,10.57976 l 0.001,-4.2341 -6e-5,-12.81432 2e-4,-4.2182 c 7.15597,-2.01599 14.28068,-4.12331 21.43765,-6.3113 -5.93797,-7.40598 -11.8754,-14.87311 -17.81338,-22.4201 0.906,-0.25 1.8149,-0.51768 2.7209,-0.78268 5.90598,-1.71898 11.84017,-3.50049 17.74617,-5.32849 0.90598,-0.266 1.81507,-0.54691 2.72107,-0.82791 8.03097,10.01597 16.09356,19.98335 24.14053,29.93732 8.04698,-15.09396 16.10914,-30.18846 24.17211,-45.20341 0.906,-0.281 1.81325,-0.56033 2.71925,-0.84133 5.90597,-1.81298 11.82601,-3.59607 17.74799,-5.31507 0.906,-0.266 1.8015,-0.53085 2.70748,-0.78085 z m -95.20518,-15.22049 c -30.03091,29.04691 -50.31376,71.17405 -50.31376,115.95491 0,44.73387 20.28072,80.32775 50.31263,92.04672 -44.31286,12.64095 -88.62553,21.15464 -132.937401,14.15467 -2.343994,-23.96894 -20.21831,-44.9677 -43.187241,-58.34267 l -0.0012,-115.65889 c 22.968931,5.57799 40.84281,-11.02867 43.186804,-33.99759 44.312878,6.99997 88.627338,-1.51719 132.940218,-14.15715 z m -72.39104,110.40194 c -2.52194,-2.7814 -6.34004,-4.35373 -10.61166,-4.07248 -7.59399,0.547 -13.74972,6.7171 -13.74972,14.32609 0,7.60899 6.15618,13.71782 13.75017,13.17082 7.59399,-0.516 13.75205,-7.45052 13.75205,-15.04451 0,-3.32237 -1.17934,-6.21661 -3.14084,-8.37992 z"
     transform="matrix(0.09205802,-0.10433407,0.10433407,0.09205802,27.132508,88.388274)"
     inkscape:label="icon" /><style
     type="text/css"
     id="style1">

	.st0{fill:#4B4B4B;}

</style><style
     type="text/css"
     id="style1-9">

	.st0{fill:#4B4B4B;}

</style></svg>
